<?xml version="1.0" standalone="no"?>
<!DOCTYPE svg PUBLIC "-//W3C//DTD SVG 20010904//EN"
 "http://www.w3.org/TR/2001/REC-SVG-20010904/DTD/svg10.dtd">
<svg version="1.0" xmlns="http://www.w3.org/2000/svg"
 width="512.000000pt" height="512.000000pt" viewBox="0 0 512.000000 512.000000"
 preserveAspectRatio="xMidYMid meet">
<metadata>
Created by potrace 1.11, written by Peter Selinger 2001-2013
</metadata>
<g transform="translate(0.000000,512.000000) scale(0.100000,-0.100000)"
fill="#000000" stroke="none">
<path d="M2379 4806 c-2 -2 -33 -7 -69 -10 -160 -16 -368 -65 -530 -125 -122
-45 -351 -160 -450 -227 -175 -117 -371 -291 -486 -429 -27 -33 -51 -62 -54
-65 -17 -15 -113 -157 -157 -230 -79 -132 -176 -337 -184 -388 0 -4 -4 -11 -9
-17 -18 -23 -81 -268 -105 -410 -21 -126 -28 -465 -12 -595 63 -522 293 -993
662 -1355 92 -90 131 -123 240 -204 83 -62 236 -161 248 -161 3 0 32 -15 64
-33 155 -88 465 -189 677 -221 189 -29 508 -29 689 0 15 2 37 6 50 8 180 28
432 112 622 208 288 145 572 379 766 633 114 149 220 330 293 503 74 172 143
434 163 617 16 144 9 471 -12 590 -3 17 -10 57 -16 90 -81 474 -365 960 -749
1285 -36 30 -67 58 -70 61 -5 6 -82 60 -158 112 -242 164 -617 306 -902 342
-30 4 -64 10 -75 12 -22 6 -431 14 -436 9z m431 -331 c191 -30 356 -75 500
-137 79 -34 224 -109 268 -139 24 -16 45 -29 48 -29 9 0 174 -129 223 -174
414 -379 638 -882 639 -1436 0 -307 -67 -593 -203 -864 -46 -90 -153 -267
-174 -286 -3 -3 -22 -25 -41 -50 -192 -250 -483 -466 -795 -592 -82 -33 -234
-81 -295 -92 -14 -3 -49 -10 -79 -15 -132 -26 -410 -35 -565 -18 -411 45 -828
245 -1131 544 -309 304 -511 717 -562 1144 -10 78 -9 393 1 469 61 486 315
944 696 1254 81 67 195 146 209 146 6 0 11 3 11 8 0 4 10 12 23 18 12 6 63 32
113 57 208 105 444 176 642 193 37 4 69 8 72 10 6 6 355 -4 400 -11z"/>
<path d="M1393 3687 c-122 -123 -158 -66 402 -627 470 -470 475 -475 515 -475
37 0 47 7 112 73 66 65 73 75 73 112 0 40 -5 45 -475 515 -561 560 -504 524
-627 402z"/>
<path d="M2608 3512 l-28 -3 0 -340 0 -339 84 0 84 0 -4 153 c-2 83 -6 190 -8
235 -3 46 -3 82 -1 80 2 -1 20 -52 40 -113 20 -60 39 -117 42 -125 4 -8 7 -17
8 -20 0 -3 16 -51 35 -107 l34 -103 56 0 55 0 73 218 c40 119 77 224 82 232 6
10 8 -10 5 -55 -3 -38 -7 -143 -10 -232 l-4 -163 84 0 85 0 0 340 0 340 -37 1
c-124 2 -177 -1 -183 -11 -4 -6 -38 -110 -76 -230 -38 -121 -71 -220 -74 -220
-3 0 -25 62 -48 138 -24 75 -58 179 -75 231 l-32 94 -80 1 c-44 1 -92 0 -107
-2z"/>
<path d="M3375 3510 c-11 -4 13 -58 93 -215 l106 -210 1 -125 1 -125 84 0 84
0 1 125 1 125 106 210 c59 115 105 211 104 212 -3 4 -73 6 -127 4 l-45 -1 -59
-140 c-32 -77 -61 -140 -64 -140 -7 0 -12 10 -76 163 -40 93 -54 117 -70 118
-11 0 -44 1 -73 2 -29 1 -59 0 -67 -3z"/>
<path d="M2802 2722 c-8 -2 -12 -28 -12 -68 0 -44 -4 -64 -12 -65 -64 -5 -108
-3 -109 6 0 5 0 36 1 68 l1 57 -43 0 -43 0 1 -167 0 -168 41 -3 42 -3 0 66 c0
37 2 69 5 72 4 5 62 7 104 4 8 -1 12 -22 12 -71 l0 -70 40 0 40 0 0 169 0 169
-28 4 c-16 2 -34 2 -40 0z"/>
<path d="M3072 2709 c-50 -25 -73 -68 -79 -143 -10 -128 65 -206 180 -185 44
8 83 41 101 84 18 44 19 125 2 167 -15 35 -67 87 -89 89 -61 6 -83 4 -115 -12z
m113 -72 c20 -31 26 -117 9 -155 -13 -32 -50 -50 -79 -38 -41 15 -54 140 -21
191 22 33 69 34 91 2z"/>
<path d="M3448 2722 c-21 -2 -38 -9 -39 -15 -4 -84 2 -246 11 -266 31 -75 183
-88 231 -19 20 27 22 44 24 163 l1 133 -38 4 c-21 2 -39 1 -39 -2 -1 -3 -3
-60 -4 -127 -1 -83 -6 -127 -14 -137 -16 -19 -64 -21 -79 -3 -7 8 -13 68 -14
143 l-3 129 -37 -3z"/>
<path d="M3860 2720 l-55 -5 0 -165 0 -165 40 0 40 0 0 55 c1 49 3 55 22 58
18 3 28 -8 53 -57 l30 -61 45 0 45 0 -34 68 -35 69 26 25 c16 16 27 41 30 66
10 82 -68 125 -207 112z m91 -66 c19 -4 28 -13 32 -30 6 -35 -16 -59 -57 -60
-36 -1 -38 1 -38 46 0 51 5 54 63 44z"/>
<path d="M4265 2714 c-31 -10 -61 -36 -65 -54 -13 -58 6 -92 67 -120 89 -40
98 -46 101 -67 3 -17 -3 -24 -22 -29 -39 -10 -76 3 -76 26 0 17 -7 20 -46 20
-42 0 -45 -1 -38 -22 13 -42 35 -67 70 -78 109 -36 194 0 194 81 0 50 -36 89
-100 108 -54 16 -86 47 -69 67 6 8 27 14 46 14 26 0 36 -5 40 -20 4 -16 14
-20 44 -20 33 0 39 3 39 21 0 25 -51 79 -77 80 -10 1 -30 2 -45 3 -15 2 -43
-3 -63 -10z"/>
<path d="M1767 1962 c-554 -555 -557 -558 -557 -598 0 -36 6 -47 50 -88 53
-50 75 -55 123 -29 18 9 277 263 576 564 l544 547 -6 39 c-9 56 -82 123 -134
123 -37 0 -54 -15 -596 -558z"/>
</g>
</svg>
